<svg width="48" height="48" viewBox="0 0 48 48" fill="none" xmlns="http://www.w3.org/2000/svg">
<path d="M24.0002 0C10.747 0 0 11.0169 0 24.6076C0 35.4799 6.87679 44.7039 16.4128 47.9577C17.6123 48.1855 18.0526 47.4239 18.0526 46.7739C18.0526 46.1872 18.0304 44.2487 18.02 42.1925C11.3431 43.6811 9.93424 39.2891 9.93424 39.2891C8.84249 36.4448 7.26945 35.6885 7.26945 35.6885C5.09192 34.1613 7.43359 34.1926 7.43359 34.1926C9.84363 34.3662 11.1126 36.7285 11.1126 36.7285C13.2532 40.4904 16.7272 39.4028 18.0967 38.7741C18.3121 37.1836 18.9341 36.0981 19.6205 35.4836C14.2897 34.8613 8.6859 32.7513 8.6859 23.3224C8.6859 20.6358 9.62345 18.4406 11.1587 16.7174C10.9095 16.0976 10.088 13.5947 11.3912 10.2052C11.3912 10.2052 13.4066 9.54387 17.993 12.7276C19.9074 12.1824 21.9606 11.9089 24.0002 11.8996C26.0398 11.9089 28.0946 12.1824 30.0126 12.7276C34.5934 9.54387 36.606 10.2052 36.606 10.2052C37.9123 13.5947 37.0905 16.0976 36.8413 16.7174C38.3801 18.4406 39.3113 20.6358 39.3113 23.3224C39.3113 32.7738 33.6968 34.8548 28.3525 35.464C29.2133 36.2276 29.9804 37.7252 29.9804 40.021C29.9804 43.3135 29.9526 45.9634 29.9526 46.7739C29.9526 47.4288 30.3846 48.1961 31.6011 47.9544C41.132 44.697 48 35.4762 48 24.6076C48 11.0169 37.2546 0 24.0002 0Z" fill="#1F222C"/>
<path d="M9.16109 35.1631C9.10833 35.2842 8.92109 35.3205 8.75051 35.2374C8.57676 35.1579 8.47918 34.9929 8.53551 34.8714C8.58708 34.7468 8.77471 34.7121 8.94807 34.7956C9.12222 34.8751 9.22139 35.0417 9.16109 35.1631Z" fill="#1F222C"/>
<path d="M10.1318 36.2635C10.0175 36.3712 9.79419 36.3212 9.64266 36.1509C9.48596 35.9811 9.45661 35.7539 9.57244 35.6446C9.69026 35.5368 9.90685 35.5873 10.0639 35.7571C10.2206 35.929 10.2512 36.1545 10.1318 36.2635Z" fill="#1F222C"/>
<path d="M11.0765 37.6655C10.9297 37.7691 10.6897 37.6719 10.5413 37.4552C10.3946 37.2386 10.3946 36.9787 10.5445 36.8746C10.6933 36.7706 10.9297 36.8642 11.08 37.0792C11.2264 37.2995 11.2264 37.5593 11.0765 37.6655Z" fill="#1F222C"/>
<path d="M12.3688 39.0229C12.2375 39.1702 11.9578 39.1306 11.7531 38.9297C11.5437 38.7332 11.4853 38.4544 11.617 38.3071C11.7499 38.1595 12.0312 38.201 12.2375 38.4003C12.4453 38.5964 12.5088 38.8773 12.3688 39.0229Z" fill="#1F222C"/>
<path d="M14.1544 39.8095C14.0965 40.0004 13.8271 40.0871 13.5558 40.006C13.2848 39.9225 13.1075 39.699 13.1623 39.5061C13.2186 39.314 13.4891 39.2237 13.7625 39.3104C14.033 39.3935 14.2107 39.6154 14.1544 39.8095Z" fill="#1F222C"/>
<path d="M16.1154 39.9552C16.1221 40.1561 15.892 40.3228 15.6072 40.3264C15.3208 40.3329 15.0891 40.1703 15.0859 39.9726C15.0859 39.7696 15.3109 39.6046 15.5973 39.5998C15.8821 39.5941 16.1154 39.7555 16.1154 39.9552Z" fill="#1F222C"/>
<path d="M17.9393 39.6399C17.9735 39.836 17.7755 40.0373 17.4927 40.091C17.2146 40.1426 16.9571 40.0216 16.9218 39.8271C16.8873 39.6262 17.0888 39.4249 17.3665 39.3728C17.6498 39.3228 17.9032 39.4406 17.9393 39.6399Z" fill="#1F222C"/>
</svg>
