<svg width="64" height="64" viewBox="0 0 64 64" fill="none" xmlns="http://www.w3.org/2000/svg">
<circle cx="32" cy="32" r="32" fill="#1F222C"/>
<ellipse cx="32" cy="32.5" rx="18" ry="17.5" fill="white"/>
<path d="M32.0001 14C22.0602 14 14 22.2627 14 32.4557C14 40.6099 19.1576 47.5279 26.3096 49.9683C27.2092 50.1391 27.5395 49.5679 27.5395 49.0805C27.5395 48.6404 27.5228 47.1865 27.515 45.6444C22.5074 46.7608 21.4507 43.4669 21.4507 43.4669C20.6319 41.3336 19.4521 40.7664 19.4521 40.7664C17.8189 39.6209 19.5752 39.6445 19.5752 39.6445C21.3827 39.7747 22.3345 41.5463 22.3345 41.5463C23.9399 44.3678 26.5454 43.5521 27.5725 43.0805C27.7341 41.8877 28.2006 41.0736 28.7154 40.6127C24.7173 40.146 20.5144 38.5635 20.5144 31.4918C20.5144 29.4768 21.2176 27.8305 22.3691 26.538C22.1822 26.0732 21.566 24.1961 22.5434 21.6539C22.5434 21.6539 24.055 21.1579 27.4947 23.5457C28.9306 23.1368 30.4704 22.9317 32.0001 22.9247C33.5299 22.9317 35.0709 23.1368 36.5094 23.5457C39.945 21.1579 41.4545 21.6539 41.4545 21.6539C42.4343 24.1961 41.8178 26.0732 41.631 26.538C42.7851 27.8305 43.4835 29.4768 43.4835 31.4918C43.4835 38.5803 39.2726 40.1411 35.2644 40.598C35.91 41.1707 36.4853 42.2939 36.4853 44.0157C36.4853 46.4851 36.4644 48.4726 36.4644 49.0805C36.4644 49.5716 36.7884 50.1471 37.7008 49.9658C44.849 47.5227 50 40.6072 50 32.4557C50 22.2627 41.9409 14 32.0001 14Z" fill="#1F222C"/>
<path d="M20.8698 40.3724C20.8303 40.4631 20.6898 40.4904 20.5619 40.428C20.4316 40.3684 20.3584 40.2447 20.4007 40.1536C20.4393 40.0601 20.5801 40.034 20.7101 40.0967C20.8407 40.1563 20.9151 40.2813 20.8698 40.3724Z" fill="#1F222C"/>
<path d="M21.5974 41.1981C21.5117 41.2789 21.3442 41.2414 21.2305 41.1137C21.113 40.9863 21.091 40.8159 21.1779 40.7339C21.2662 40.6531 21.4287 40.6909 21.5465 40.8183C21.664 40.9472 21.6869 41.1164 21.5974 41.1981Z" fill="#1F222C"/>
<path d="M22.3059 42.2481C22.1958 42.3259 22.0158 42.253 21.9045 42.0905C21.7944 41.928 21.7944 41.7331 21.9069 41.655C22.0185 41.5769 22.1958 41.6471 22.3086 41.8084C22.4184 41.9737 22.4184 42.1685 22.3059 42.2481Z" fill="#1F222C"/>
<path d="M23.2766 43.2672C23.1781 43.3776 22.9684 43.348 22.8148 43.1973C22.6577 43.0499 22.614 42.8408 22.7128 42.7304C22.8125 42.6196 23.0234 42.6508 23.1781 42.8003C23.334 42.9473 23.3816 43.1579 23.2766 43.2672Z" fill="#1F222C"/>
<path d="M24.6148 43.8562C24.5714 43.9993 24.3694 44.0643 24.1659 44.0035C23.9627 43.9409 23.8297 43.7732 23.8707 43.6286C23.913 43.4846 24.1159 43.4168 24.3209 43.4818C24.5238 43.5442 24.6571 43.7106 24.6148 43.8562Z" fill="#1F222C"/>
<path d="M26.0865 43.9659C26.0916 44.1166 25.919 44.2416 25.7054 44.2443C25.4906 44.2492 25.3168 44.1272 25.3145 43.9789C25.3145 43.8267 25.4831 43.703 25.698 43.6993C25.9116 43.6951 26.0865 43.8161 26.0865 43.9659Z" fill="#1F222C"/>
<path d="M27.4535 43.7285C27.4791 43.8755 27.3307 44.0265 27.1185 44.0668C26.91 44.1055 26.7169 44.0147 26.6904 43.8689C26.6645 43.7182 26.8156 43.5672 27.0239 43.5281C27.2363 43.4906 27.4265 43.579 27.4535 43.7285Z" fill="#1F222C"/>
</svg>
