<svg width="303" height="82" viewBox="0 0 303 82" fill="none" xmlns="http://www.w3.org/2000/svg">
<g opacity="0.8">
<path d="M1.68256 80.3144H58.4411V58.5533H36.0069L43.971 49.6918C51.15 41.7276 56.7585 35.1095 56.7585 24.6776C56.7585 8.41282 43.0737 0 28.7158 0C16.6013 0 5.38421 6.05723 0 18.9569L19.7421 29.7253C21.649 24.7898 24.7898 21.7612 29.0523 21.7612C32.6418 21.7612 34.3243 23.8924 34.3243 26.248C34.3243 29.2766 31.5201 31.6322 27.2576 36.2312L1.68256 63.9375V80.3144Z" fill="#1F222C"/>
<path d="M59.5251 1.79473V23.5559H88.4652L66.4797 80.3144H91.1573L114.489 20.1908V1.79473H59.5251Z" fill="#1F222C"/>
<path d="M139.081 40.7181C139.081 39.2598 140.315 38.3625 142.558 38.3625C145.026 38.3625 147.381 39.7085 148.84 43.0737L166.002 36.9043C161.515 26.1358 152.766 22.6585 141.661 22.6585C130.443 22.6585 118.441 28.9401 118.441 41.952C118.441 62.4792 145.474 58.1046 145.474 63.7131C145.474 65.2835 144.016 66.1809 141.661 66.1809C137.959 66.1809 135.267 64.6105 133.696 60.4602L115.637 68.5365C120.124 78.6319 129.434 81.8848 141.885 81.8848C152.429 81.8848 167.123 77.7345 167.123 62.4792C167.123 40.6059 139.081 46.4388 139.081 40.7181Z" fill="#1F222C"/>
<path d="M183.457 81.997C190.635 81.997 196.356 76.2763 196.356 69.0973C196.356 61.9184 190.635 56.1977 183.457 56.1977C176.278 56.1977 170.557 61.9184 170.557 69.0973C170.557 76.2763 176.278 81.997 183.457 81.997Z" fill="#1F222C"/>
<path d="M204.747 20.3493V80.3144H227.181V20.3493H204.747Z" fill="#1F222C"/>
</g>
<path opacity="0.8" d="M269.916 82.0001C288.268 82.0001 302.808 68.0772 302.808 49.9512C302.808 31.8252 288.268 17.9023 269.916 17.9023C251.563 17.9023 237.023 31.8252 237.023 49.9512C237.023 68.0772 251.563 82.0001 269.916 82.0001ZM269.916 64.8373C261.138 64.8373 254.755 58.445 254.755 49.9512C254.755 41.4574 261.138 35.0651 269.916 35.0651C278.693 35.0651 285.076 41.4574 285.076 49.9512C285.076 58.445 278.693 64.8373 269.916 64.8373Z" fill="#1F222C"/>
</svg>
