<svg width="49" height="48" viewBox="0 0 49 48" fill="none" xmlns="http://www.w3.org/2000/svg">
<path fill-rule="evenodd" clip-rule="evenodd" d="M48.2695 24C48.2695 37.2548 37.5244 48 24.2695 48C11.0147 48 0.269531 37.2548 0.269531 24C0.269531 10.7452 11.0147 0 24.2695 0C37.5244 0 48.2695 10.7452 48.2695 24ZM37.9621 30.9231C37.9621 32.6223 36.5845 34 34.8852 34H13.3468C11.6476 34 10.2699 32.6223 10.2699 30.9231V17.0769C10.2699 15.3777 11.6476 14 13.3468 14H34.8852C36.5845 14 37.9621 15.3777 37.9621 17.0769V30.9231ZM10.7602 32.423L18.6816 24.4131C18.9824 24.1123 19.4685 24.1123 19.7701 24.4131C20.0701 24.7138 20.0701 25.2 19.7701 25.5008L11.8478 33.5115C11.836 33.5233 11.8224 33.5309 11.8088 33.5385C11.7985 33.5442 11.7882 33.55 11.7786 33.5576C11.3402 33.2953 10.9755 32.9315 10.714 32.493C10.7219 32.4834 10.7278 32.4727 10.7338 32.4619C10.7412 32.4485 10.7487 32.4349 10.7602 32.423ZM37.5014 32.4654C37.5068 32.475 37.5122 32.4844 37.5186 32.493C37.2571 32.9315 36.8932 33.2961 36.454 33.5576C36.4444 33.5498 36.4336 33.5437 36.4229 33.5377C36.4094 33.5301 36.3959 33.5226 36.3848 33.5115L28.425 25.5008C28.1242 25.2 28.1242 24.7138 28.425 24.4131C28.7258 24.1123 29.2119 24.1123 29.5135 24.4131L37.4725 32.4238C37.4849 32.4363 37.4933 32.451 37.5014 32.4654Z" fill="#1F222C"/>
<path d="M8.26953 14.0184L21.1833 26.7528C22.8669 28.4157 25.6171 28.4157 27.3024 26.7528L40.2695 14" stroke="#1F222C" stroke-width="2"/>
</svg>
