<svg width="66" height="66" viewBox="0 0 66 66" fill="none" xmlns="http://www.w3.org/2000/svg">
<path fill-rule="evenodd" clip-rule="evenodd" d="M33 65C50.6731 65 65 50.6731 65 33C65 15.3269 50.6731 1 33 1C15.3269 1 1 15.3269 1 33C1 50.6731 15.3269 65 33 65Z" fill="#12100E" stroke="white" stroke-opacity="0.24"/>
<path d="M21.01 25.8959C21.0485 25.5248 20.9034 25.1581 20.6192 24.9083L17.7247 21.5079V21H26.7121L33.6589 35.8571L39.7663 21H48.334V21.5079L45.8592 23.8219C45.6458 23.9805 45.54 24.2411 45.5842 24.4991V41.5009C45.54 41.7589 45.6458 42.0195 45.8592 42.1781L48.2761 44.4921V45H36.1192V44.4921L38.623 42.1217C38.869 41.8818 38.869 41.8113 38.869 41.4444V27.7019L31.9077 44.9436H30.967L22.8625 27.7019V39.2575C22.7949 39.7433 22.9603 40.2324 23.3111 40.5838L26.5674 44.4356V44.9436H17.334V44.4356L20.5903 40.5838C20.9385 40.2319 21.0943 39.7395 21.01 39.2575V25.8959Z" fill="white"/>
</svg>
