<svg width="49" height="48" viewBox="0 0 49 48" fill="none" xmlns="http://www.w3.org/2000/svg">
<path d="M19.9871 23C18.6191 23 17.5391 24.2 17.5391 25.6641C17.5391 27.1281 18.6431 28.3281 19.9871 28.3281C21.3551 28.3281 22.4351 27.1281 22.4351 25.6641C22.4591 24.2 21.3551 23 19.9871 23ZM28.7471 23C27.3791 23 26.2991 24.2 26.2991 25.6641C26.2991 27.1281 27.4031 28.3281 28.7471 28.3281C30.1151 28.3281 31.1951 27.1281 31.1951 25.6641C31.1951 24.2 30.1151 23 28.7471 23Z" fill="#1F222C"/>
<path fill-rule="evenodd" clip-rule="evenodd" d="M29.7708 32.4C30.4907 33.312 31.3547 34.344 31.3547 34.344C36.6587 34.176 38.6987 30.696 38.6987 30.696C38.6987 22.968 35.2427 16.704 35.2427 16.704C31.7867 14.112 28.4987 14.184 28.4987 14.184L28.1627 14.568C32.2427 15.816 34.1387 17.616 34.1387 17.616C31.6427 16.248 29.1947 15.576 26.9147 15.312C25.1867 15.12 23.5308 15.168 22.0667 15.36C21.941 15.36 21.8336 15.3783 21.7125 15.3989C21.6949 15.4019 21.677 15.405 21.6588 15.408C20.8188 15.48 18.7788 15.792 16.2108 16.92C15.3228 17.328 14.7948 17.616 14.7948 17.616C14.7948 17.616 16.7868 15.72 21.1068 14.472L20.8668 14.184C20.8668 14.184 17.5788 14.112 14.1228 16.704C14.1228 16.704 10.6668 22.968 10.6668 30.696C10.6668 30.696 12.6828 34.176 17.9867 34.344C17.9867 34.344 18.8748 33.264 19.5948 32.352C16.5468 31.44 15.3948 29.52 15.3948 29.52C15.3948 29.52 15.6348 29.688 16.0668 29.928C16.0908 29.952 16.1148 29.976 16.1628 30C16.1988 30.024 16.2348 30.042 16.2708 30.06C16.3068 30.078 16.3428 30.096 16.3788 30.12C16.9788 30.456 17.5788 30.72 18.1308 30.936C19.1147 31.32 20.2908 31.704 21.6588 31.968C23.4587 32.304 25.5707 32.424 27.8747 31.992C29.0027 31.8 30.1547 31.464 31.3547 30.96C32.1947 30.648 33.1307 30.192 34.1147 29.544C34.1147 29.544 32.9147 31.512 29.7708 32.4ZM24.5391 48C37.7939 48 48.5391 37.2548 48.5391 24C48.5391 10.7452 37.7939 0 24.5391 0C11.2842 0 0.539062 10.7452 0.539062 24C0.539062 37.2548 11.2842 48 24.5391 48Z" fill="#1F222C"/>
</svg>
