<svg width="64" height="64" viewBox="0 0 64 64" fill="none" xmlns="http://www.w3.org/2000/svg">
<path d="M25.93 30.666C24.106 30.666 22.666 32.266 22.666 34.218C22.666 36.17 24.138 37.77 25.93 37.77C27.754 37.77 29.194 36.17 29.194 34.218C29.226 32.266 27.754 30.666 25.93 30.666ZM37.61 30.666C35.786 30.666 34.346 32.266 34.346 34.218C34.346 36.17 35.818 37.77 37.61 37.77C39.434 37.77 40.874 36.17 40.874 34.218C40.874 32.266 39.434 30.666 37.61 30.666Z" fill="#7289DA"/>
<path fill-rule="evenodd" clip-rule="evenodd" d="M38.9754 43.2C39.9354 44.416 41.0873 45.792 41.0873 45.792C48.1593 45.568 50.8794 40.928 50.8794 40.928C50.8794 30.624 46.2714 22.272 46.2714 22.272C41.6634 18.816 37.2794 18.912 37.2794 18.912L36.8314 19.424C42.2714 21.088 44.7993 23.488 44.7993 23.488C41.4713 21.664 38.2074 20.768 35.1674 20.416C32.8633 20.16 30.6553 20.224 28.7034 20.48C28.5357 20.48 28.3925 20.5044 28.2311 20.5319C28.2076 20.5359 28.1837 20.5399 28.1593 20.544C27.0393 20.64 24.3194 21.056 20.8954 22.56C19.7114 23.104 19.0074 23.488 19.0074 23.488C19.0074 23.488 21.6634 20.96 27.4234 19.296L27.1033 18.912C27.1033 18.912 22.7193 18.816 18.1113 22.272C18.1113 22.272 13.5033 30.624 13.5033 40.928C13.5033 40.928 16.1913 45.568 23.2633 45.792C23.2633 45.792 24.4473 44.352 25.4074 43.136C21.3433 41.92 19.8073 39.36 19.8073 39.36C19.8073 39.36 20.1273 39.584 20.7034 39.904C20.7353 39.936 20.7674 39.968 20.8314 40C20.8794 40.032 20.9274 40.056 20.9754 40.08C21.0234 40.104 21.0714 40.128 21.1194 40.16C21.9193 40.608 22.7193 40.96 23.4553 41.248C24.7673 41.76 26.3353 42.272 28.1593 42.624C30.5593 43.072 33.3753 43.232 36.4473 42.656C37.9513 42.4 39.4873 41.952 41.0873 41.28C42.2073 40.864 43.4553 40.256 44.7673 39.392C44.7673 39.392 43.1674 42.016 38.9754 43.2ZM32 64C49.6731 64 64 49.6731 64 32C64 14.3269 49.6731 0 32 0C14.3269 0 0 14.3269 0 32C0 49.6731 14.3269 64 32 64Z" fill="#7289DA"/>
</svg>
