<svg width="64" height="64" viewBox="0 0 64 64" fill="none" xmlns="http://www.w3.org/2000/svg">
<path d="M0 32C0 14.3269 14.3269 0 32 0C49.6731 0 64 14.3269 64 32C64 49.6731 49.6731 64 32 64C14.3269 64 0 49.6731 0 32Z" fill="#55ACEE"/>
<path d="M32.5089 26.4484L32.5826 27.6595L31.3543 27.5112C26.8831 26.9428 22.977 25.0149 19.6605 21.7771L18.0391 20.1706L17.6214 21.357C16.737 24.0016 17.302 26.7945 19.1446 28.6729C20.1272 29.7109 19.9061 29.8592 18.211 29.2413C17.6214 29.0436 17.1055 28.8953 17.0564 28.9695C16.8844 29.1425 17.474 31.3916 17.9408 32.2814C18.5795 33.5172 19.8816 34.7283 21.3064 35.445L22.5102 36.0135L21.0853 36.0382C19.7096 36.0382 19.6605 36.0629 19.8079 36.582C20.2992 38.1885 22.24 39.8939 24.4019 40.6354L25.925 41.1544L24.5984 41.9453C22.6331 43.0822 20.3238 43.7248 18.0145 43.7743C16.909 43.799 16 43.8979 16 43.972C16 44.2192 18.9972 45.6033 20.7414 46.147C25.9742 47.7535 32.1896 47.0615 36.8573 44.318C40.1738 42.3655 43.4903 38.4851 45.038 34.7283C45.8733 32.7263 46.7086 29.0683 46.7086 27.3135C46.7086 26.1766 46.7823 26.0283 48.158 24.6689C48.9687 23.878 49.7303 23.0129 49.8777 22.7658C50.1234 22.2962 50.0988 22.2962 48.8459 22.7163C46.7577 23.4578 46.4629 23.359 47.4947 22.2467C48.2563 21.4558 49.1653 20.0223 49.1653 19.6021C49.1653 19.528 48.7968 19.6516 48.3791 19.874C47.9369 20.1212 46.9543 20.4919 46.2173 20.7144L44.8906 21.1345L43.6869 20.3189C43.0236 19.874 42.09 19.3797 41.5987 19.2314C40.3458 18.8854 38.4296 18.9348 37.2995 19.3303C34.2286 20.4425 32.2878 23.3095 32.5089 26.4484Z" fill="white"/>
</svg>
