<?xml version="1.0" standalone="no"?><!DOCTYPE svg PUBLIC "-//W3C//DTD SVG 1.1//EN" "http://www.w3.org/Graphics/SVG/1.1/DTD/svg11.dtd"><svg t="1636860482070" class="icon" viewBox="0 0 1024 1024" version="1.1" xmlns="http://www.w3.org/2000/svg" p-id="5419" xmlns:xlink="http://www.w3.org/1999/xlink" width="40" height="40"><defs><style type="text/css"></style></defs><path d="M765.4 414.5l-269 269c-7.8 7.8-19.5 11.7-31.2 11.7s-23.4-3.9-31.2-11.7L266.4 515.9c-15.6-15.6-15.6-46.8 0-62.4 15.6-15.6 46.8-15.6 62.4 0L465.2 590 703 352.2c15.6-15.6 46.8-15.6 62.4 0 19.5 15.5 19.5 46.7 0 62.3zM512 5.1C231.3 5.1 5.1 231.3 5.1 512s226.1 506.9 506.9 506.9c280.7 0 506.9-226.1 506.9-506.9C1018.9 231.3 792.7 5.1 512 5.1z" p-id="5420" fill="#ffffff"></path></svg>