<svg width="14" height="10" viewBox="0 0 14 10" fill="none" xmlns="http://www.w3.org/2000/svg">
<path d="M7 8.1879C5.18922 8.1879 3.71875 6.75927 3.71875 5C3.71875 3.24073 5.18922 1.8121 7 1.8121C8.81078 1.8121 10.2812 3.24073 10.2812 5C10.2812 6.75927 8.81078 8.1879 7 8.1879ZM7 0C3.67891 0 1.31156 2.04618 0 5C1.31156 7.95382 3.67891 10 7 10C10.3211 10 12.6884 7.95382 14 5C12.6884 2.04618 10.3211 0 7 0Z" fill="white"/>
<path opacity="0.4" d="M5.59375 5.00003C5.59375 4.24587 6.22375 3.63379 7 3.63379C7.77625 3.63379 8.40625 4.24587 8.40625 5.00003C8.40625 5.7542 7.77625 6.36628 7 6.36628C6.22375 6.36628 5.59375 5.7542 5.59375 5.00003Z" fill="white"/>
</svg>
