<svg width="21" height="20" viewBox="0 0 21 20" fill="none" xmlns="http://www.w3.org/2000/svg">
<path d="M19.994 13.5316H15.9366C14.0362 13.5316 12.4896 11.985 12.4896 10.0846C12.4896 8.18427 14.0362 6.6377 15.9366 6.6377H19.9908C20.4041 6.6377 20.7422 6.97268 20.7422 7.38907C20.7422 7.80233 20.4072 8.14044 19.9908 8.14044H15.9366C14.8658 8.14044 13.9924 9.01392 13.9924 10.0846C13.9924 11.1553 14.8658 12.0288 15.9366 12.0288H19.9908C20.4041 12.0288 20.7422 12.3638 20.7422 12.7802C20.7422 13.1966 20.4072 13.5316 19.994 13.5316Z" fill="#969DAE"/>
<path d="M16.3967 10.7733H16.0837C15.6704 10.7733 15.3323 10.4383 15.3323 10.0219C15.3323 9.6055 15.6673 9.27051 16.0837 9.27051H16.3967C16.81 9.27051 17.1481 9.6055 17.1481 10.0219C17.1481 10.4383 16.8131 10.7733 16.3967 10.7733Z" fill="#969DAE"/>
<path d="M14.7374 19.8213H6.07781C2.7655 19.8213 0.0699463 17.1257 0.0699463 13.8134V6.62213C0.0699463 3.30981 2.7655 0.614258 6.07781 0.614258H14.7374C18.0497 0.614258 20.7453 3.30981 20.7453 6.62213V13.8134C20.7453 17.1257 18.0497 19.8213 14.7374 19.8213ZM6.07781 2.11388C3.59202 2.11388 1.5727 4.13633 1.5727 6.61899V13.8103C1.5727 16.2961 3.59515 18.3154 6.07781 18.3154H14.7374C17.2232 18.3154 19.2425 16.2929 19.2425 13.8103V6.61899C19.2425 4.1332 17.2201 2.11388 14.7374 2.11388H6.07781Z" fill="#969DAE"/>
<path opacity="0.4" d="M10.7739 6.65998H5.36405C4.95079 6.65998 4.61267 6.32499 4.61267 5.9086C4.61267 5.49221 4.94766 5.15723 5.36405 5.15723H10.7739C11.1872 5.15723 11.5253 5.49221 11.5253 5.9086C11.5253 6.32499 11.1903 6.65998 10.7739 6.65998Z" fill="#969DAE"/>
</svg>
