<svg width="12" height="12" viewBox="0 0 12 12" fill="none" xmlns="http://www.w3.org/2000/svg">
<path opacity="0.4" d="M10.2827 7.2444C10.2827 7.47214 10.3732 7.69054 10.5342 7.85157C10.6952 8.0126 10.9136 8.10307 11.1414 8.10307C11.3691 8.10307 11.5875 8.0126 11.7485 7.85157C11.9096 7.69054 12 7.47214 12 7.2444C12 7.13164 11.9778 7.01999 11.9347 6.91581C11.8915 6.81163 11.8283 6.71697 11.7485 6.63724C11.6688 6.5575 11.5741 6.49426 11.47 6.4511C11.3658 6.40795 11.2541 6.38574 11.1414 6.38574C11.0286 6.38574 10.917 6.40795 10.8128 6.4511C10.7086 6.49426 10.6139 6.5575 10.5342 6.63724C10.4545 6.71697 10.3912 6.81163 10.3481 6.91581C10.3049 7.01999 10.2827 7.13164 10.2827 7.2444Z" fill="white"/>
<path opacity="0.4" d="M0.79357 3.20399L10.7206 0.54246C10.728 0.540507 10.7357 0.544833 10.7377 0.552368L11.7683 4.39646C11.7688 4.39823 11.7689 4.40007 11.7687 4.40189C11.7684 4.4037 11.7678 4.40545 11.7669 4.40704C11.766 4.40862 11.7648 4.41 11.7633 4.41111C11.7619 4.41222 11.7602 4.41303 11.7584 4.41349L1.83142 7.07502C1.82783 7.07596 1.82401 7.07544 1.8208 7.07359C1.81758 7.07173 1.81523 7.06869 1.81425 7.06511L0.783662 3.22102C0.781708 3.21362 0.786174 3.20608 0.79357 3.20399Z" fill="white"/>
<path d="M12 5.43397C11 4.96033 9.80529 5.38708 9.33165 6.38725C8.85801 7.38728 9.28476 8.58198 10.2849 9.05562C10.553 9.18256 10.8459 9.24841 11.1425 9.24841C11.4391 9.24841 11.732 9.18256 12 9.05562V10.3934C12 11.0257 11.4874 11.5382 10.8551 11.5382H1.69566C1.06335 11.5382 0.550781 11.0257 0.550781 10.3934V3.52379C0.550781 2.89148 1.06335 2.37891 1.69566 2.37891H10.8551C11.4874 2.37891 12 2.89148 12 3.52379V5.43397Z" fill="white"/>
</svg>
