<svg width="14" height="13" viewBox="0 0 14 13" fill="none" xmlns="http://www.w3.org/2000/svg">
<path fill-rule="evenodd" clip-rule="evenodd" d="M6.2448 12.1674C6.2448 11.7812 5.93171 11.4681 5.5455 11.4681H2.04899V1.6779H5.5455C5.93171 1.6779 6.2448 1.36481 6.2448 0.978598C6.2448 0.592383 5.93171 0.279297 5.5455 0.279297H2.04899C1.27657 0.279297 0.650391 0.905472 0.650391 1.6779V11.4681C0.650391 12.2405 1.27657 12.8667 2.04899 12.8667H5.5455C5.93171 12.8667 6.2448 12.5536 6.2448 12.1674Z" fill="#969DAE"/>
<path d="M13.7368 7.0629C13.8016 6.99692 13.8507 6.92129 13.884 6.84068C13.918 6.75884 13.9368 6.66916 13.9371 6.5751L13.9371 6.573L13.9371 6.57091C13.9366 6.39264 13.8683 6.21454 13.7323 6.07852L10.9351 3.28132C10.662 3.00823 10.2192 3.00823 9.94612 3.28132C9.67303 3.55441 9.67303 3.99719 9.94612 4.27028L11.5495 5.8737H4.84619C4.45998 5.8737 4.14689 6.18679 4.14689 6.573C4.14689 6.95922 4.45998 7.2723 4.84619 7.2723H11.5495L9.94612 8.87573C9.67303 9.14882 9.67303 9.59159 9.94612 9.86469C10.2192 10.1378 10.662 10.1378 10.9351 9.86469L13.7318 7.06798L13.7368 7.0629Z" fill="#969DAE"/>
</svg>
