<svg width="308" height="87" viewBox="0 0 308 87" fill="none" xmlns="http://www.w3.org/2000/svg">
<path d="M32.084 63H46.772L31.5374 15.1785H15.5514L0.316836 63H15.0049L16.6445 56.8515H30.4444L32.084 63ZM19.5821 45.9209L23.5444 31.2329L27.5068 45.9209H19.5821ZM69.942 27.8854C65.843 27.8854 62.837 29.3883 60.7876 31.916V15.1785H48.149V63H60.7876V59.9258C62.837 62.4535 65.843 63.9564 69.942 63.9564C79.233 63.9564 85.5864 56.2367 85.5864 45.9209C85.5864 35.6051 79.233 27.8854 69.942 27.8854ZM66.8677 52.3426C63.1786 52.3426 60.7876 49.5417 60.7876 45.9209C60.7876 42.3001 63.1786 39.4991 66.8677 39.4991C70.5568 39.4991 72.9479 42.3001 72.9479 45.9209C72.9479 49.5417 70.5568 52.3426 66.8677 52.3426ZM105.77 63.9564C116.018 63.9564 124.147 56.1684 124.147 45.9209C124.147 35.6734 116.018 27.8854 105.77 27.8854C95.5227 27.8854 87.3931 35.6734 87.3931 45.9209C87.3931 56.1684 95.6594 63.9564 105.77 63.9564ZM105.77 51.9327C102.423 51.9327 100.032 49.4733 100.032 45.9209C100.032 42.3684 102.423 39.909 105.77 39.909C109.118 39.909 111.509 42.3684 111.509 45.9209C111.509 49.4733 109.118 51.9327 105.77 51.9327ZM148.62 28.8418V46.3991C148.62 49.7466 147.048 51.7961 143.974 51.7961C141.378 51.7961 139.738 50.2931 139.738 47.2189V28.8418H127.1V48.5852C127.1 59.1743 132.36 63.9564 139.465 63.9564C143.427 63.9564 146.57 62.4535 148.62 59.6525V63H161.258V28.8418H148.62ZM188.598 40.8655V28.8418H181.425V19.2775L168.786 23.0349V28.8418H164.004V40.8655H168.786V48.9268C168.786 60.5406 174.047 65.0495 188.598 63V51.6595C183.952 51.9327 181.425 51.7961 181.425 48.2437V40.8655H188.598ZM204.351 63H238.919V49.7466H225.256L230.106 44.3496C234.478 39.4991 237.894 35.4685 237.894 29.115C237.894 19.2092 229.56 14.0854 220.815 14.0854C213.437 14.0854 206.605 17.7745 203.326 25.6309L215.35 32.1893C216.511 29.1834 218.424 27.3388 221.02 27.3388C223.206 27.3388 224.231 28.6368 224.231 30.0715C224.231 31.916 222.523 33.3507 219.927 36.1516L204.351 53.0258V63ZM239.579 15.1785V28.4319H257.205L243.815 63H258.844L273.054 26.3824V15.1785H239.579ZM288.031 38.8843C288.031 37.9962 288.783 37.4497 290.149 37.4497C291.652 37.4497 293.087 38.2695 293.975 40.3189L304.427 36.5615C301.695 30.0032 296.366 27.8854 289.603 27.8854C282.771 27.8854 275.461 31.7111 275.461 39.6358C275.461 52.1377 291.926 49.4733 291.926 52.8892C291.926 53.8456 291.037 54.3921 289.603 54.3921C287.348 54.3921 285.709 53.4357 284.752 50.908L273.753 55.8268C276.486 61.9753 282.156 63.9564 289.739 63.9564C296.161 63.9564 305.111 61.4287 305.111 52.1377C305.111 38.816 288.031 42.3684 288.031 38.8843Z" fill="white"/>
<rect x="1" y="79" width="47" height="8" fill="white"/>
</svg>
