<svg width="404" height="52" viewBox="0 0 404 52" fill="none" xmlns="http://www.w3.org/2000/svg">
<path opacity="0.8" d="M20.083 51.064C31.122 51.064 38.2375 45.744 38.2375 36.168C38.2375 26.459 30.989 23.666 23.674 21.538C18.354 20.0085 16.093 19.277 16.093 17.2155C16.093 15.8855 17.157 14.755 19.6175 14.755C22.078 14.755 24.605 16.1515 26.0015 19.676L37.0405 13.2255C34.048 6.0435 27.265 2.386 19.551 2.386C9.3765 2.386 2.793 8.77 2.793 17.149C2.793 25.661 8.9775 29.784 16.6915 32.1115C21.413 33.508 24.9375 33.907 24.9375 36.301C24.9375 37.6975 23.6075 38.695 20.4155 38.695C16.492 38.695 13.699 36.966 12.0365 32.7765L0.665 39.36C2.926 46.3425 9.709 51.064 20.083 51.064ZM58.2945 50.931C68.2695 50.931 76.183 43.35 76.183 33.375C76.183 23.4 68.2695 15.819 58.2945 15.819C48.3195 15.819 40.406 23.4 40.406 33.375C40.406 43.35 48.4525 50.931 58.2945 50.931ZM58.2945 39.227C55.036 39.227 52.7085 36.833 52.7085 33.375C52.7085 29.917 55.036 27.523 58.2945 27.523C61.553 27.523 63.8805 29.917 63.8805 33.375C63.8805 36.833 61.553 39.227 58.2945 39.227ZM95.6821 50.931C102.332 50.931 108.051 47.5395 110.977 42.2195L100.603 36.2345C99.7386 37.897 97.8766 39.094 95.6821 39.094C92.5566 39.094 90.2291 36.7 90.2291 33.375C90.2291 30.05 92.5566 27.656 95.6821 27.656C97.8766 27.656 99.6721 28.853 100.603 30.449L110.977 24.5305C108.051 19.277 102.332 15.819 95.6821 15.819C85.5076 15.819 77.9266 23.4 77.9266 33.375C77.9266 43.35 85.5076 50.931 95.6821 50.931ZM119.523 14.223C123.18 14.223 126.306 11.0975 126.306 7.44C126.306 3.7825 123.18 0.656997 119.523 0.656997C115.799 0.656997 112.673 3.7825 112.673 7.44C112.673 11.0975 115.799 14.223 119.523 14.223ZM113.338 50H125.641V16.75H113.338V50ZM152.819 16.75V19.7425C150.824 17.282 147.898 15.819 143.908 15.819C134.864 15.819 128.68 23.3335 128.68 33.375C128.68 43.4165 134.864 50.931 143.908 50.931C147.898 50.931 150.824 49.468 152.819 47.0075V50H165.122V16.75H152.819ZM146.901 39.626C143.31 39.626 140.982 36.8995 140.982 33.375C140.982 29.8505 143.31 27.124 146.901 27.124C150.492 27.124 152.819 29.8505 152.819 33.375C152.819 36.8995 150.492 39.626 146.901 39.626ZM169.806 50H182.109V1.455H169.806V50ZM232.638 3.45H197.393V16.351H208.366V50H221.666V16.351H232.638V3.45ZM246.386 50.931C256.361 50.931 264.274 43.35 264.274 33.375C264.274 23.4 256.361 15.819 246.386 15.819C236.411 15.819 228.497 23.4 228.497 33.375C228.497 43.35 236.544 50.931 246.386 50.931ZM246.386 39.227C243.127 39.227 240.8 36.833 240.8 33.375C240.8 29.917 243.127 27.523 246.386 27.523C249.644 27.523 251.972 29.917 251.972 33.375C251.972 36.833 249.644 39.227 246.386 39.227ZM301.396 50L290.623 33.375L300.731 16.75H286.766L279.783 29.651V3.45H267.481V50H279.783V36.7L287.763 50H301.396ZM312.012 37.5645H334.09C334.489 35.9685 334.622 34.6385 334.622 33.242C334.622 23.3335 327.44 15.819 317.266 15.819C307.025 15.819 299.577 23.4665 299.577 33.508C299.577 43.2835 306.759 50.931 318.396 50.931C323.783 50.931 329.036 49.2685 332.494 45.5445L324.448 38.7615C322.519 40.3575 320.857 40.8895 318.795 40.8895C316.135 40.8895 313.342 40.3575 312.012 37.5645ZM311.813 29.651C312.81 26.9245 315.071 25.661 317.598 25.661C319.992 25.661 322.12 26.6585 322.985 29.651H311.813ZM358.8 15.819C354.943 15.819 351.884 17.282 349.889 20.0085V16.75H337.586V50H349.889V32.9095C349.889 29.651 351.418 27.656 354.411 27.656C356.938 27.656 358.534 29.119 358.534 32.1115V50H370.836V30.7815C370.836 20.474 365.716 15.819 358.8 15.819ZM387.075 26.5255C387.075 25.661 387.807 25.129 389.137 25.129C390.6 25.129 391.996 25.927 392.861 27.922L403.035 24.2645C400.375 17.8805 395.188 15.819 388.605 15.819C381.955 15.819 374.839 19.543 374.839 27.257C374.839 39.4265 390.866 36.833 390.866 40.158C390.866 41.089 390.001 41.621 388.605 41.621C386.41 41.621 384.814 40.69 383.883 38.2295L373.177 43.0175C375.837 49.0025 381.356 50.931 388.738 50.931C394.989 50.931 403.7 48.4705 403.7 39.4265C403.7 26.459 387.075 29.917 387.075 26.5255Z" fill="#1F222C"/>
</svg>
