<svg width="18" height="18" viewBox="0 0 18 18" fill="none" xmlns="http://www.w3.org/2000/svg">
<path d="M12.4037 0H5.26302C2.36098 0 0 2.36098 0 5.26302V12.4037C0 15.3058 2.36098 17.6667 5.26302 17.6667H12.4037C15.3058 17.6667 17.6667 15.3058 17.6667 12.4037V5.26302C17.6667 2.36098 15.3057 0 12.4037 0ZM15.8895 12.4037C15.8895 14.3288 14.3288 15.8895 12.4037 15.8895H5.26302C3.33791 15.8895 1.77727 14.3288 1.77727 12.4037V5.26302C1.77727 3.33788 3.33791 1.77727 5.26302 1.77727H12.4037C14.3288 1.77727 15.8895 3.33788 15.8895 5.26302V12.4037Z" fill="white"/>
<path d="M8.83341 4.26465C6.31392 4.26465 4.26416 6.31441 4.26416 8.83387C4.26416 11.3533 6.31392 13.4031 8.83341 13.4031C11.3529 13.4031 13.4027 11.3534 13.4027 8.83387C13.4027 6.31438 11.3529 4.26465 8.83341 4.26465ZM8.83341 11.6259C7.29143 11.6259 6.04143 10.3759 6.04143 8.8339C6.04143 7.29192 7.29146 6.04192 8.83341 6.04192C10.3754 6.04192 11.6254 7.29192 11.6254 8.8339C11.6254 10.3758 10.3754 11.6259 8.83341 11.6259Z" fill="white"/>
<path d="M13.4115 5.3929C14.0162 5.3929 14.5064 4.9027 14.5064 4.29801C14.5064 3.69332 14.0162 3.20312 13.4115 3.20312C12.8068 3.20312 12.3167 3.69332 12.3167 4.29801C12.3167 4.9027 12.8068 5.3929 13.4115 5.3929Z" fill="white"/>
</svg>
