<svg width="24" height="24" viewBox="0 0 24 24" fill="none" xmlns="http://www.w3.org/2000/svg">
<path d="M9.20883 11.703C9.1796 11.703 9.16012 11.703 9.13089 11.703C9.08218 11.6932 9.01399 11.6932 8.95554 11.7031C6.13045 11.6152 3.9965 9.37147 3.99584 6.60559C3.99517 3.79049 6.26443 1.49653 9.05054 1.49587C11.8366 1.49521 14.107 3.78809 14.1077 6.60319C14.0986 9.36907 11.9559 11.6138 9.23805 11.703C9.22831 11.703 9.21857 11.703 9.20883 11.703ZM9.05089 2.97232C7.07334 2.97279 5.45661 4.60711 5.45709 6.60524C5.45755 8.57384 6.97763 10.1582 8.91623 10.2266C8.97467 10.2168 9.10132 10.2168 9.22796 10.2266C11.1373 10.1375 12.6371 8.55245 12.6464 6.60353C12.6459 4.6054 11.0284 2.97185 9.05089 2.97232Z" fill="white"/>
<path d="M16.3983 11.8292C16.3691 11.8292 16.3398 11.8292 16.3106 11.8194C15.9112 11.8589 15.502 11.5735 15.4629 11.17C15.4239 10.7664 15.6673 10.4022 16.0667 10.3528C16.1836 10.343 16.3103 10.3429 16.4174 10.3429C17.8397 10.2638 18.9499 9.08241 18.9496 7.63549C18.9492 6.13936 17.7507 4.92895 16.27 4.9293C15.8706 4.93924 15.5393 4.60466 15.5392 4.2011C15.5391 3.79753 15.8703 3.46279 16.2697 3.4627C18.5492 3.46216 20.4103 5.34173 20.4108 7.64499C20.4114 9.90888 18.6583 11.7401 16.4275 11.8292C16.4178 11.8292 16.408 11.8292 16.3983 11.8292Z" fill="white"/>
<path d="M9.22102 22.4608C7.31166 22.4612 5.39244 21.9695 3.9407 20.9856C2.5864 20.0803 1.84574 18.8403 1.84542 17.4918C1.8451 16.1433 2.58517 14.8931 3.93904 13.9774C6.86106 12.0179 11.5955 12.0168 14.499 13.9749C15.8435 14.8801 16.5939 16.1201 16.5942 17.4686C16.5946 18.8171 15.8545 20.0673 14.5006 20.9831C13.0396 21.9677 11.1304 22.4603 9.22102 22.4608ZM4.74789 15.2174C3.81284 15.8476 3.30647 16.6548 3.30667 17.5013C3.30687 18.338 3.82337 19.145 4.74897 19.7648C7.17503 21.4081 11.2665 21.4071 13.6918 19.7627C14.6268 19.1326 15.1332 18.3253 15.133 17.4788C15.1328 16.6422 14.6163 15.8351 13.6907 15.2153C11.2647 13.5819 7.17317 13.5829 4.74789 15.2174Z" fill="white"/>
<path d="M18.1537 20.6876C17.8128 20.6877 17.5107 20.4516 17.4425 20.0972C17.3644 19.6937 17.6176 19.3097 18.0073 19.2211C18.621 19.093 19.1859 18.8468 19.6242 18.5021C20.1794 18.0788 20.4812 17.5472 20.4811 16.9861C20.481 16.4251 20.1789 15.8936 19.6332 15.4803C19.2045 15.1458 18.6687 14.9097 18.0354 14.7622C17.6457 14.6737 17.3924 14.28 17.4799 13.8764C17.5675 13.4827 17.9571 13.2267 18.3566 13.3152C19.1944 13.502 19.9251 13.8365 20.5194 14.299C21.4256 14.9878 21.9421 15.9621 21.9424 16.9858C21.9426 18.0094 21.4168 18.984 20.511 19.6831C19.9071 20.1557 19.1473 20.5004 18.3096 20.6679C18.2512 20.6876 18.2024 20.6876 18.1537 20.6876Z" fill="white"/>
</svg>
