<svg width="20" height="15" viewBox="0 0 20 15" fill="none" xmlns="http://www.w3.org/2000/svg">
<path fill-rule="evenodd" clip-rule="evenodd" d="M17.8139 0.429167C18.6745 0.665313 19.3522 1.36111 19.5822 2.24472C20.0002 3.84615 20.0002 7.18756 20.0002 7.18756C20.0002 7.18756 20.0002 10.5288 19.5822 12.1304C19.3522 13.014 18.6745 13.7098 17.8139 13.9461C16.2543 14.3751 10.0001 14.3751 10.0001 14.3751C10.0001 14.3751 3.74583 14.3751 2.18615 13.9461C1.32558 13.7098 0.647846 13.014 0.417844 12.1304C0 10.5288 0 7.18756 0 7.18756C0 7.18756 0 3.84615 0.417844 2.24472C0.647846 1.36111 1.32558 0.665313 2.18615 0.429167C3.74583 0 10.0001 0 10.0001 0C10.0001 0 16.2543 0 17.8139 0.429167ZM8.12524 4.37512V10.6252L13.1253 7.50027L8.12524 4.37512Z" fill="white"/>
</svg>
