<svg width="26" height="27" viewBox="0 0 26 27" fill="none" xmlns="http://www.w3.org/2000/svg">
<path d="M17.2668 23.1523C17.0651 23.1524 16.8633 23.0773 16.704 22.9164L15.0898 21.2862C14.7818 20.9752 14.7817 20.4602 15.0895 20.1491C15.3974 19.8379 15.907 19.8378 16.215 20.1488L17.2663 21.2106L19.9306 18.5173C20.2385 18.2061 20.7481 18.206 21.0561 18.517C21.364 18.828 21.3642 19.343 21.0563 19.6542L17.8294 22.9162C17.6702 23.0771 17.4685 23.1523 17.2668 23.1523Z" fill="white"/>
<path d="M13.2297 12.7484C13.1978 12.7484 13.1766 12.7484 13.1447 12.7484C13.0916 12.7377 13.0173 12.7377 12.9536 12.7484C9.87458 12.6526 7.54881 10.2072 7.5481 7.19272C7.53713 5.71228 8.11013 4.31754 9.15038 3.26597C10.1906 2.2144 11.5707 1.62404 13.0465 1.62369C16.0831 1.62297 18.5575 4.12196 18.5582 7.1901C18.559 10.2046 16.2343 12.6404 13.2615 12.7483C13.2509 12.7483 13.2403 12.7484 13.2297 12.7484ZM13.0469 3.23286C11.9958 3.23311 11.0191 3.65172 10.2761 4.39212C9.54366 5.14324 9.14044 6.13029 9.14069 7.18161C9.1412 9.32716 10.7979 11.0647 12.9108 11.1285C12.9745 11.1178 13.1125 11.1178 13.2505 11.1285C15.3421 11.0314 16.9661 9.30385 16.9656 7.17975C16.9651 5.01274 15.2022 3.23235 13.0469 3.23286Z" fill="white"/>
<path d="M13.052 24.4845C10.886 24.485 8.83675 23.9169 7.28638 22.8659C5.81034 21.8686 5.0031 20.5064 5.00275 19.0367C5.0024 17.567 5.81961 16.2151 7.28457 15.2278C10.4586 13.0815 15.6186 13.0802 18.7937 15.225C19.1548 15.4717 19.2611 15.9759 19.0169 16.3407C18.7728 16.7162 18.2738 16.8129 17.9128 16.5662C15.2687 14.786 10.8094 14.7871 8.16612 16.5685C7.14702 17.2553 6.59513 18.1244 6.59535 19.0363C6.59556 19.9481 7.14787 20.8384 8.1673 21.5248C9.4522 22.3934 11.1829 22.865 13.041 22.8646C13.4763 22.8645 13.8373 23.2291 13.8374 23.669C13.8375 24.1088 13.4873 24.4844 13.052 24.4845Z" fill="white"/>
</svg>
