<svg width="17" height="20" viewBox="0 0 17 20" fill="none" xmlns="http://www.w3.org/2000/svg">
<path fill-rule="evenodd" clip-rule="evenodd" d="M6.82735 7.81349V7.03954C6.55873 7.00151 6.28788 6.98175 6.01658 6.98047C2.69904 6.98047 0 9.67998 0 12.9975C0 15.0326 1.01708 16.8341 2.56861 17.9234C1.52973 16.8124 0.952165 15.3479 0.953004 13.8269C0.953004 10.5566 3.57523 7.88984 6.82735 7.81349Z" fill="white"/>
<path fill-rule="evenodd" clip-rule="evenodd" d="M6.96924 16.5741C8.44942 16.5741 9.65692 15.3966 9.7119 13.9292L9.71691 0.829389H12.1101C12.059 0.555875 12.0332 0.278245 12.0328 0H8.76438L8.75892 13.1003C8.70439 14.5673 7.49643 15.7443 6.01671 15.7443C5.57244 15.7445 5.13487 15.6362 4.74194 15.4289C4.99564 15.7829 5.32999 16.0714 5.71729 16.2705C6.10459 16.4697 6.53373 16.5737 6.96924 16.5741ZM16.5809 5.27604V4.54798C15.7013 4.54881 14.8407 4.29296 14.1045 3.81177C14.75 4.55497 15.619 5.06872 16.5813 5.27604" fill="white"/>
<path fill-rule="evenodd" clip-rule="evenodd" d="M12.0331 12.9969V6.35405C13.3579 7.30683 14.949 7.81848 16.5809 7.81649V5.27606C15.6187 5.06854 14.7498 4.55461 14.1045 3.81134C13.5877 3.47519 13.1445 3.03765 12.8017 2.52521C12.459 2.01276 12.2238 1.43608 12.1104 0.830078H9.71717L9.71217 13.9299C9.65719 15.3969 8.44968 16.5744 6.96951 16.5744C6.534 16.574 6.10486 16.4698 5.71756 16.2707C5.3303 16.0716 4.99595 15.7831 4.74221 15.4292C4.29836 15.1965 3.92651 14.8469 3.66691 14.4182C3.4073 13.9895 3.26981 13.4981 3.26931 12.9969C3.27014 12.2684 3.55988 11.57 4.075 11.0549C4.59008 10.5398 5.2885 10.2501 6.01698 10.2492C6.29965 10.2492 6.57096 10.2956 6.82771 10.3765V7.81331C3.57559 7.88966 0.953369 10.5564 0.953369 13.8267C0.953369 15.4082 1.5678 16.848 2.56898 17.9232C3.57828 18.6337 4.78268 19.0146 6.01698 19.0135C9.33454 19.0135 12.0331 16.3144 12.0331 12.9969Z" fill="white"/>
</svg>
