<svg width="43" height="43" viewBox="0 0 43 43" fill="none" xmlns="http://www.w3.org/2000/svg">
<path fill-rule="evenodd" clip-rule="evenodd" d="M7.82326 22.4765L18.3985 33.1397L11.3269 33.1397L0 22.4766L7.82326 22.4765ZM35.4906 20.9612L20.3778 5.8485L28.3251 5.8485L42.5622 20.9612L29.8998 33.6236L22.8282 33.6236L35.4906 20.9612Z" fill="#262B34"/>
<path fill-rule="evenodd" clip-rule="evenodd" d="M17.1921 22.4764H11.9702C12.7187 26.4801 16.2318 29.5104 20.4527 29.5104C25.2187 29.5104 29.0824 25.6467 29.0824 20.8807C29.0824 16.1146 25.2187 12.251 20.4527 12.251C18.1576 12.251 16.0718 13.1469 14.5259 14.6081L18.0355 18.1734C18.6773 17.6 19.5243 17.2514 20.4527 17.2514C22.4571 17.2514 24.082 18.8763 24.082 20.8807C24.082 22.8851 22.4571 24.51 20.4527 24.51C19.0208 24.51 17.7826 23.6808 17.1921 22.4764Z" fill="#262B34"/>
</svg>
