<svg width="18" height="20" viewBox="0 0 18 20" fill="none" xmlns="http://www.w3.org/2000/svg">
<path d="M7.18992 8.46094C6.61992 8.46094 6.16992 8.93594 6.16992 9.51544C6.16992 10.0949 6.62992 10.5699 7.18992 10.5699C7.75992 10.5699 8.20992 10.0949 8.20992 9.51544C8.21992 8.93594 7.75992 8.46094 7.18992 8.46094ZM10.8399 8.46094C10.2699 8.46094 9.81992 8.93594 9.81992 9.51544C9.81992 10.0949 10.2799 10.5699 10.8399 10.5699C11.4099 10.5699 11.8599 10.0949 11.8599 9.51544C11.8599 8.93594 11.4099 8.46094 10.8399 8.46094Z" fill="white"/>
<path d="M15.7 0.490234H2.3C1.17 0.490234 0.25 1.36423 0.25 2.44723V15.2912C0.25 16.3742 1.17 17.2482 2.3 17.2482H13.64L13.11 15.4907L14.39 16.6212L15.6 17.6852L17.75 19.4902V2.44723C17.75 1.36423 16.83 0.490234 15.7 0.490234ZM11.84 12.8972C11.84 12.8972 11.48 12.4887 11.18 12.1277C12.49 11.7762 12.99 10.9972 12.99 10.9972C12.58 11.2537 12.19 11.4342 11.84 11.5577C11.34 11.7572 10.86 11.8902 10.39 11.9662C9.53355 12.116 8.65521 12.1128 7.8 11.9567C7.29792 11.8634 6.80587 11.7267 6.33 11.5482C6.07916 11.4566 5.83525 11.3487 5.6 11.2252C5.57 11.2062 5.54 11.1967 5.51 11.1777C5.49 11.1682 5.48 11.1587 5.47 11.1492C5.29 11.0542 5.19 10.9877 5.19 10.9877C5.19 10.9877 5.67 11.7477 6.94 12.1087C6.64 12.4697 6.27 12.8972 6.27 12.8972C4.06 12.8307 3.22 11.4532 3.22 11.4532C3.22 8.39423 4.66 5.91473 4.66 5.91473C6.1 4.88873 7.47 4.91723 7.47 4.91723L7.57 5.03123C5.77 5.52523 4.94 6.27573 4.94 6.27573C4.94 6.27573 5.16 6.16173 5.53 6.00023C6.6 5.55373 7.45 5.43023 7.8 5.40173C7.86 5.39223 7.91 5.38273 7.97 5.38273C9.7041 5.15976 11.4677 5.47286 13 6.27573C13 6.27573 12.21 5.56323 10.51 5.06923L10.65 4.91723C10.65 4.91723 12.02 4.88873 13.46 5.91473C13.46 5.91473 14.9 8.39423 14.9 11.4532C14.9 11.4532 14.05 12.8307 11.84 12.8972V12.8972Z" fill="white"/>
</svg>
