<svg width="22" height="22" viewBox="0 0 22 22" fill="none" xmlns="http://www.w3.org/2000/svg">
<path d="M1 10.5C0.723858 10.5 0.5 10.7239 0.5 11C0.5 11.2761 0.723858 11.5 1 11.5V10.5ZM21 11.5C21.2761 11.5 21.5 11.2761 21.5 11C21.5 10.7239 21.2761 10.5 21 10.5V11.5ZM1 11.5H2V10.5H1V11.5ZM4 11.5H6V10.5H4V11.5ZM8 11.5H10V10.5H8V11.5ZM12 11.5H14V10.5H12V11.5ZM16 11.5H18V10.5H16V11.5ZM20 11.5H21V10.5H20V11.5Z" fill="#969DAE"/>
<path d="M11.5 1C11.5 0.723858 11.2761 0.5 11 0.5C10.7239 0.5 10.5 0.723858 10.5 1L11.5 1ZM10.5 21C10.5 21.2761 10.7239 21.5 11 21.5C11.2761 21.5 11.5 21.2761 11.5 21L10.5 21ZM10.5 1L10.5 2L11.5 2L11.5 1L10.5 1ZM10.5 4L10.5 6L11.5 6L11.5 4L10.5 4ZM10.5 8L10.5 10L11.5 10L11.5 8L10.5 8ZM10.5 12L10.5 14L11.5 14L11.5 12L10.5 12ZM10.5 16L10.5 18L11.5 18L11.5 16L10.5 16ZM10.5 20L10.5 21L11.5 21L11.5 20L10.5 20Z" fill="#969DAE"/>
</svg>
