<svg width="13" height="13" viewBox="0 0 13 13" fill="none" xmlns="http://www.w3.org/2000/svg">
<path opacity="0.4" d="M9.16756 0.635742H11.1407C11.9579 0.635742 12.6201 1.30349 12.6201 2.12756V4.1174C12.6201 4.94147 11.9579 5.60922 11.1407 5.60922H9.16756C8.35039 5.60922 7.68823 4.94147 7.68823 4.1174V2.12756C7.68823 1.30349 8.35039 0.635742 9.16756 0.635742Z" fill="white"/>
<path fill-rule="evenodd" clip-rule="evenodd" d="M2.44447 0.635742H4.41764C5.23481 0.635742 5.89697 1.30349 5.89697 2.12756V4.1174C5.89697 4.94147 5.23481 5.60922 4.41764 5.60922H2.44447C1.62729 5.60922 0.965141 4.94147 0.965141 4.1174V2.12756C0.965141 1.30349 1.62729 0.635742 2.44447 0.635742ZM2.44441 7.31713H4.41759C5.23476 7.31713 5.89691 7.98488 5.89691 8.80895V10.7988C5.89691 11.6223 5.23476 12.2906 4.41759 12.2906H2.44441C1.62724 12.2906 0.965088 11.6223 0.965088 10.7988V8.80895C0.965088 7.98488 1.62724 7.31713 2.44441 7.31713ZM11.1408 7.31713H9.16759C8.35041 7.31713 7.68826 7.98488 7.68826 8.80895V10.7988C7.68826 11.6223 8.35041 12.2906 9.16759 12.2906H11.1408C11.9579 12.2906 12.6201 11.6223 12.6201 10.7988V8.80895C12.6201 7.98488 11.9579 7.31713 11.1408 7.31713Z" fill="white"/>
</svg>
