<svg width="24" height="25" viewBox="0 0 24 25" fill="none" xmlns="http://www.w3.org/2000/svg">
<g clip-path="url(#clip0_1661_1112)">
<path d="M10.19 11.7725C9.61998 11.7725 9.16998 12.2475 9.16998 12.827C9.16998 13.4065 9.62998 13.8815 10.19 13.8815C10.76 13.8815 11.21 13.4065 11.21 12.827C11.22 12.2475 10.76 11.7725 10.19 11.7725ZM13.84 11.7725C13.27 11.7725 12.82 12.2475 12.82 12.827C12.82 13.4065 13.28 13.8815 13.84 13.8815C14.41 13.8815 14.86 13.4065 14.86 12.827C14.86 12.2475 14.41 11.7725 13.84 11.7725Z" fill="white"/>
<path d="M18.7 3.80176H5.3C4.17 3.80176 3.25 4.67576 3.25 5.75876V18.6028C3.25 19.6858 4.17 20.5598 5.3 20.5598H16.64L16.11 18.8023L17.39 19.9328L18.6 20.9968L20.75 22.8018V5.75876C20.75 4.67576 19.83 3.80176 18.7 3.80176ZM14.84 16.2088C14.84 16.2088 14.48 15.8003 14.18 15.4393C15.49 15.0878 15.99 14.3088 15.99 14.3088C15.58 14.5653 15.19 14.7458 14.84 14.8693C14.34 15.0688 13.86 15.2018 13.39 15.2778C12.5336 15.4276 11.6552 15.4243 10.8 15.2683C10.2979 15.1749 9.80587 15.0382 9.33 14.8598C9.07916 14.7681 8.83525 14.6602 8.6 14.5368C8.57 14.5178 8.54 14.5083 8.51 14.4893C8.49 14.4798 8.48 14.4703 8.47 14.4608C8.29 14.3658 8.19 14.2993 8.19 14.2993C8.19 14.2993 8.67 15.0593 9.94 15.4203C9.64 15.7813 9.27 16.2088 9.27 16.2088C7.06 16.1423 6.22 14.7648 6.22 14.7648C6.22 11.7058 7.66 9.22626 7.66 9.22626C9.1 8.20026 10.47 8.22876 10.47 8.22876L10.57 8.34276C8.77 8.83676 7.94 9.58726 7.94 9.58726C7.94 9.58726 8.16 9.47326 8.53 9.31176C9.6 8.86526 10.45 8.74176 10.8 8.71326C10.86 8.70376 10.91 8.69426 10.97 8.69426C12.7041 8.47128 14.4677 8.78438 16 9.58726C16 9.58726 15.21 8.87476 13.51 8.38076L13.65 8.22876C13.65 8.22876 15.02 8.20026 16.46 9.22626C16.46 9.22626 17.9 11.7058 17.9 14.7648C17.9 14.7648 17.05 16.1423 14.84 16.2088Z" fill="white"/>
</g>
<defs>
<clipPath id="clip0_1661_1112">
<rect width="20" height="19" fill="white" transform="translate(2 3.80176)"/>
</clipPath>
</defs>
</svg>
