<svg width="24" height="25" viewBox="0 0 24 25" fill="none" xmlns="http://www.w3.org/2000/svg">
<path fill-rule="evenodd" clip-rule="evenodd" d="M8.14117 3.00733C9.13928 2.96138 9.45752 2.95117 12 2.95117C14.5425 2.95117 14.8608 2.96223 15.858 3.00733C16.8553 3.05243 17.536 3.21155 18.1316 3.44214C18.7554 3.67784 19.3212 4.04629 19.7892 4.52279C20.2657 4.98994 20.6333 5.55494 20.8682 6.1795C21.0996 6.77514 21.2579 7.45586 21.3038 8.45142C21.3498 9.45123 21.36 9.76947 21.36 12.3111C21.36 14.8536 21.3489 15.1719 21.3038 16.17C21.2587 17.1655 21.0996 17.8463 20.8682 18.4419C20.6333 19.0665 20.2651 19.6325 19.7892 20.1003C19.3212 20.5768 18.7554 20.9444 18.1316 21.1792C17.536 21.4107 16.8553 21.569 15.8597 21.6149C14.8608 21.6609 14.5425 21.6711 12 21.6711C9.45752 21.6711 9.13928 21.66 8.14117 21.6149C7.14562 21.5698 6.46489 21.4107 5.86926 21.1792C5.24463 20.9444 4.67869 20.5762 4.21085 20.1003C3.73466 19.6329 3.36616 19.0672 3.13105 18.4427C2.90045 17.8471 2.74218 17.1664 2.69624 16.1708C2.65029 15.171 2.64008 14.8528 2.64008 12.3111C2.64008 9.76862 2.65114 9.45038 2.69624 8.45312C2.74133 7.45586 2.90045 6.77514 3.13105 6.1795C3.36651 5.55501 3.73529 4.98935 4.2117 4.52194C4.67888 4.04586 5.24425 3.67737 5.86841 3.44214C6.46404 3.21155 7.14476 3.05328 8.14032 3.00733H8.14117ZM15.7823 4.69212C14.7952 4.64702 14.4991 4.63766 12 4.63766C9.50092 4.63766 9.2048 4.64702 8.21775 4.69212C7.30473 4.73382 6.80951 4.88613 6.47936 5.01462C6.04284 5.1848 5.73056 5.38646 5.40296 5.71406C5.09242 6.01617 4.85343 6.38396 4.70352 6.79045C4.57503 7.1206 4.42272 7.61583 4.38103 8.52885C4.33593 9.5159 4.32657 9.81201 4.32657 12.3111C4.32657 14.8102 4.33593 15.1063 4.38103 16.0934C4.42272 17.0064 4.57503 17.5016 4.70352 17.8318C4.85328 18.2377 5.09238 18.6061 5.40296 18.9082C5.70503 19.2188 6.07348 19.4579 6.47936 19.6076C6.80951 19.7361 7.30473 19.8884 8.21775 19.9301C9.2048 19.9752 9.50007 19.9846 12 19.9846C14.5 19.9846 14.7952 19.9752 15.7823 19.9301C16.6953 19.8884 17.1905 19.7361 17.5207 19.6076C17.9572 19.4374 18.2695 19.2358 18.5971 18.9082C18.9077 18.6061 19.1468 18.2377 19.2965 17.8318C19.425 17.5016 19.5773 17.0064 19.619 16.0934C19.6641 15.1063 19.6735 14.8102 19.6735 12.3111C19.6735 9.81201 19.6641 9.5159 19.619 8.52885C19.5773 7.61583 19.425 7.1206 19.2965 6.79045C19.1264 6.35394 18.9247 6.04166 18.5971 5.71406C18.295 5.40354 17.9272 5.16455 17.5207 5.01462C17.1905 4.88613 16.6953 4.73382 15.7823 4.69212ZM10.8045 15.1965C11.4722 15.4745 12.2156 15.512 12.9079 15.3027C13.6001 15.0933 14.1982 14.6502 14.6001 14.0489C15.0019 13.4476 15.1825 12.7254 15.111 12.0057C15.0395 11.2861 14.7204 10.6135 14.2081 10.103C13.8816 9.77668 13.4867 9.5268 13.052 9.37137C12.6173 9.21594 12.1536 9.15883 11.6941 9.20414C11.2347 9.24946 10.791 9.39607 10.3951 9.63344C9.99908 9.8708 9.66067 10.193 9.40417 10.5769C9.14768 10.9607 8.97947 11.3966 8.91168 11.8533C8.84389 12.31 8.87819 12.776 9.01211 13.2178C9.14603 13.6596 9.37625 14.0662 9.68618 14.4084C9.99611 14.7505 10.3781 15.0197 10.8045 15.1965ZM8.59811 8.9092C9.04485 8.46246 9.57522 8.10808 10.1589 7.8663C10.7426 7.62453 11.3682 7.50008 12 7.50008C12.6318 7.50008 13.2574 7.62453 13.8411 7.8663C14.4248 8.10808 14.9552 8.46246 15.4019 8.9092C15.8487 9.35595 16.2031 9.88632 16.4448 10.47C16.6866 11.0537 16.8111 11.6793 16.8111 12.3111C16.8111 12.9429 16.6866 13.5685 16.4448 14.1522C16.2031 14.7359 15.8487 15.2663 15.4019 15.713C14.4997 16.6153 13.276 17.1222 12 17.1222C10.7241 17.1222 9.50035 16.6153 8.59811 15.713C7.69586 14.8108 7.18899 13.5871 7.18899 12.3111C7.18899 11.0352 7.69586 9.81145 8.59811 8.9092ZM17.8781 8.21657C17.9888 8.11214 18.0774 7.98655 18.1387 7.84725C18.2 7.70795 18.2327 7.55777 18.235 7.4056C18.2372 7.25342 18.2088 7.10235 18.1516 6.96132C18.0944 6.8203 18.0095 6.69218 17.9019 6.58457C17.7942 6.47695 17.6661 6.39202 17.5251 6.33481C17.3841 6.27759 17.233 6.24926 17.0808 6.25148C16.9287 6.25369 16.7785 6.28642 16.6392 6.34772C16.4999 6.40903 16.3743 6.49765 16.2699 6.60836C16.0668 6.82366 15.9556 7.10965 15.9599 7.4056C15.9642 7.70155 16.0837 7.98417 16.293 8.19346C16.5023 8.40275 16.7849 8.52224 17.0808 8.52655C17.3768 8.53087 17.6628 8.41967 17.8781 8.21657Z" fill="white"/>
</svg>
