<svg width="24" height="25" viewBox="0 0 24 25" fill="none" xmlns="http://www.w3.org/2000/svg">
<path d="M12.3985 3.35303C13.3772 3.33789 14.3503 3.34686 15.3223 3.33789C15.3812 4.48262 15.7929 5.64867 16.6308 6.45801C17.4671 7.28753 18.65 7.66724 19.8009 7.79568V10.807C18.7223 10.7716 17.6387 10.5473 16.66 10.0829C16.2337 9.88996 15.8366 9.6415 15.448 9.38742C15.4429 11.5726 15.4569 13.7549 15.4339 15.9311C15.3756 16.9765 15.0307 18.017 14.4227 18.8785C13.4445 20.3126 11.7468 21.2476 10.003 21.2767C8.93346 21.3379 7.86501 21.0462 6.95359 20.5089C5.44317 19.6182 4.38033 17.9878 4.22553 16.2379C4.20603 15.8673 4.20303 15.496 4.21655 15.1251C4.35116 13.7022 5.05505 12.341 6.14763 11.415C7.38602 10.3364 9.12079 9.82266 10.7451 10.1267C10.7602 11.2344 10.7159 12.341 10.7159 13.4487C9.97388 13.2086 9.10677 13.2759 8.45841 13.7263C7.98405 14.0388 7.62557 14.4986 7.43819 15.0348C7.28339 15.414 7.32769 15.8352 7.33667 16.2379C7.51446 17.4651 8.69453 18.4965 9.95424 18.3849C10.7894 18.3759 11.5897 17.8913 12.025 17.1818C12.1658 16.9334 12.3234 16.6793 12.3318 16.3871C12.4052 15.0494 12.3761 13.7173 12.3851 12.3797C12.3912 9.36499 12.3761 6.35873 12.3991 3.35359L12.3985 3.35303Z" fill="white"/>
</svg>
