<svg width="24" height="25" viewBox="0 0 24 25" fill="none" xmlns="http://www.w3.org/2000/svg">
<path fill-rule="evenodd" clip-rule="evenodd" d="M20.8785 3.18983C18.7296 1.04089 15.2455 1.04089 13.0965 3.18983L9.56484 6.72153C9.32188 6.9645 9.51887 7.34623 9.86216 7.3315L11.4187 7.26472C11.7086 7.25228 11.9833 7.13155 12.1884 6.92639L14.5108 4.60404C15.8787 3.23615 18.0964 3.23615 19.4643 4.60404C20.8322 5.97193 20.8322 8.18973 19.4643 9.55762L15.9326 13.0893C14.5647 14.4572 12.3469 14.4572 10.9791 13.0893C10.9449 13.0551 10.9116 13.0204 10.8791 12.9852C10.6091 12.6925 10.2425 12.4851 9.84463 12.5021C9.0894 12.5345 8.59508 13.3037 9.04856 13.9085C9.2041 14.1159 9.37619 14.3149 9.56484 14.5035C11.7138 16.6525 15.1979 16.6525 17.3468 14.5035L20.8785 10.9718C23.0275 8.82289 23.0275 5.33877 20.8785 3.18983Z" fill="white"/>
<path fill-rule="evenodd" clip-rule="evenodd" d="M13.3846 12.0349C14.1861 12.0077 14.6913 11.1754 14.1663 10.569C14.0782 10.4673 13.9859 10.3679 13.8892 10.2713C11.7087 8.09083 8.17358 8.09083 5.99315 10.2713L2.57547 13.6889C0.395039 15.8694 0.395039 19.4045 2.57547 21.585C4.75589 23.7654 8.29107 23.7654 10.4715 21.585L13.8892 18.1673C14.0653 17.9912 13.9271 17.7086 13.6782 17.717L11.877 17.7783C11.5927 17.788 11.3228 17.9053 11.1217 18.1064L9.05728 20.1708C7.6579 21.5701 5.38906 21.5701 3.98968 20.1708C2.5903 18.7714 2.5903 16.5025 3.98968 15.1032L7.40736 11.6855C8.80674 10.2861 11.0756 10.2861 12.475 11.6855C12.6926 11.9031 12.9805 12.0487 13.2881 12.0382L13.3846 12.0349Z" fill="white"/>
</svg>
