<svg width="24" height="25" viewBox="0 0 24 25" fill="none" xmlns="http://www.w3.org/2000/svg">
<path d="M21.7625 7.64897C21.6471 7.23746 21.4224 6.86489 21.1122 6.57089C20.7933 6.26784 20.4024 6.05106 19.9764 5.94101C18.3822 5.52081 11.9951 5.52081 11.9951 5.52081C9.33246 5.49052 6.67043 5.62376 4.02408 5.91979C3.5981 6.03796 3.20793 6.25959 2.88827 6.56494C2.57418 6.86715 2.34668 7.23981 2.22783 7.64813C1.94234 9.18609 1.80363 10.7477 1.81357 12.3119C1.80339 13.8747 1.94176 15.4358 2.22783 16.9757C2.34413 17.3823 2.57078 17.7533 2.88572 18.053C3.20066 18.3526 3.59284 18.5691 4.02408 18.6837C5.63951 19.103 11.9951 19.103 11.9951 19.103C14.6612 19.1334 17.3266 19.0001 19.9764 18.7041C20.4024 18.594 20.7933 18.3772 21.1122 18.0742C21.4263 17.7745 21.6496 17.4019 21.7616 16.9961C22.0545 15.4587 22.197 13.8964 22.1869 12.3314C22.2089 10.7598 22.0667 9.19019 21.7625 7.64813V7.64897ZM9.9646 15.2185V9.40617L15.2786 12.3128L9.9646 15.2185Z" fill="white"/>
</svg>
