<svg width="23" height="16" viewBox="0 0 23 16" fill="none" xmlns="http://www.w3.org/2000/svg">
<path d="M18.7037 4.2199C18.0167 2.8159 16.8309 1.65097 15.3282 0.903622C13.8254 0.156272 12.0886 -0.132273 10.3838 0.0822043C8.67896 0.296681 7.10026 1.00235 5.88958 2.09107C4.67889 3.17979 3.90301 4.59151 3.68083 6.10989C2.60875 6.33822 1.66828 6.90873 1.03803 7.71308C0.407785 8.51744 0.13165 9.49962 0.262065 10.4731C0.392481 11.4466 0.920364 12.3436 1.74547 12.9938C2.57057 13.6439 3.63544 14.002 4.73783 13.9999C5.03606 13.9999 5.32207 13.8945 5.53295 13.707C5.74383 13.5195 5.8623 13.2651 5.8623 12.9999C5.8623 12.7347 5.74383 12.4803 5.53295 12.2928C5.32207 12.1053 5.03606 11.9999 4.73783 11.9999C4.14138 11.9999 3.56935 11.7892 3.14759 11.4141C2.72583 11.039 2.48889 10.5303 2.48889 9.9999C2.48889 9.46946 2.72583 8.96075 3.14759 8.58568C3.56935 8.21061 4.14138 7.9999 4.73783 7.9999C5.03606 7.9999 5.32207 7.89454 5.53295 7.707C5.74383 7.51947 5.8623 7.26511 5.8623 6.9999C5.86517 5.81717 6.3394 4.67365 7.20072 3.77248C8.06205 2.87131 9.2547 2.27085 10.5668 2.07777C11.8789 1.88469 13.2255 2.1115 14.3673 2.7179C15.5091 3.32431 16.3723 4.27104 16.8034 5.3899C16.8677 5.56174 16.9832 5.71483 17.1377 5.83283C17.2922 5.95083 17.4798 6.02931 17.6805 6.0599C18.4294 6.18577 19.1084 6.5335 19.6067 7.04643C20.105 7.55936 20.3933 8.20725 20.4246 8.88454C20.4559 9.56182 20.2284 10.2286 19.7791 10.7761C19.3298 11.3237 18.6852 11.7198 17.9503 11.8999C17.6611 11.9662 17.4133 12.132 17.2614 12.3608C17.1096 12.5896 17.0662 12.8626 17.1407 13.1199C17.2153 13.3772 17.4017 13.5975 17.659 13.7326C17.9163 13.8676 18.2233 13.9062 18.5126 13.8399C19.696 13.5618 20.745 12.9479 21.5003 12.0914C22.2556 11.2348 22.676 10.1825 22.6977 9.09416C22.7193 8.00583 22.341 6.94094 21.6201 6.06122C20.8993 5.18149 19.8753 4.53499 18.7037 4.2199ZM12.283 6.2899C12.1761 6.19885 12.05 6.12749 11.9119 6.0799C11.6382 5.97988 11.3311 5.97988 11.0574 6.0799C10.9193 6.12749 10.7932 6.19885 10.6863 6.2899L7.31287 9.2899C7.10113 9.4782 6.98217 9.73359 6.98217 9.9999C6.98217 10.2662 7.10113 10.5216 7.31287 10.7099C7.52461 10.8982 7.81179 11.004 8.11124 11.004C8.41069 11.004 8.69787 10.8982 8.90961 10.7099L10.3602 9.40989V14.9999C10.3602 15.2651 10.4787 15.5195 10.6895 15.707C10.9004 15.8945 11.1864 15.9999 11.4846 15.9999C11.7829 15.9999 12.0689 15.8945 12.2798 15.707C12.4906 15.5195 12.6091 15.2651 12.6091 14.9999V9.40989L14.0597 10.7099C14.1642 10.8036 14.2886 10.878 14.4256 10.9288C14.5626 10.9796 14.7096 11.0057 14.8581 11.0057C15.0065 11.0057 15.1535 10.9796 15.2905 10.9288C15.4275 10.878 15.5519 10.8036 15.6564 10.7099C15.7618 10.6169 15.8455 10.5063 15.9026 10.3845C15.9597 10.2626 15.989 10.1319 15.989 9.9999C15.989 9.86788 15.9597 9.73718 15.9026 9.61532C15.8455 9.49346 15.7618 9.38286 15.6564 9.2899L12.283 6.2899Z" fill="white"/>
</svg>
